<svg xmlns="http://www.w3.org/2000/svg" xml:space="preserve" width="1.70666in" height="1.70666in" version="1.1" style="shape-rendering:geometricPrecision; text-rendering:geometricPrecision; image-rendering:optimizeQuality; fill-rule:evenodd; clip-rule:evenodd" viewBox="0 0 1706.66 1706.66" xmlns:xlink="http://www.w3.org/1999/xlink" xmlns:xodm="http://www.corel.com/coreldraw/odm/2003">
 <defs>
  <style type="text/css">
   
    .fil0 {fill:black}
   
  </style>
 </defs>
 <g id="Layer_x0020_1">
  <metadata id="CorelCorpID_0Corel-Layer"></metadata>
  <path class="fil0" d="M853.39 1153.12c-317.91,0 -576.52,-258.61 -576.52,-576.52 0,-317.92 258.61,-576.53 576.52,-576.53 317.92,0 576.53,258.61 576.53,576.53 0,317.77 -258.61,576.52 -576.53,576.52zm0 -100c-262.91,0 -476.66,-213.75 -476.66,-476.66 0,-262.91 213.75,-476.67 476.66,-476.67 262.91,0 476.66,213.75 476.66,476.66 0,262.91 -213.75,476.66 -476.66,476.66z" id="id_101" style="fill: rgb(255, 255, 255);"></path>
  <path class="fil0" d="M853.39 1013.12c-240.83,0 -436.66,-195.83 -436.66,-436.66 0,-240.83 195.83,-436.67 436.66,-436.67 240.83,0 436.67,195.83 436.67,436.67 0,240.83 -195.83,436.67 -436.67,436.67zm-75.13 -285.55c-5.14,0 -10.28,-1.94 -14.17,-5.83l-111.94 -111.94c-18.54,-18.54 9.53,-46.97 28.33,-28.33l97.78 97.78 248.05 -248.06c18.54,-18.54 46.97,9.53 28.33,28.33l-262.22 262.22c-3.89,3.89 -9.03,5.83 -14.17,5.83z" id="id_102" style="fill: rgb(255, 255, 255);"></path>
  <path class="fil0" d="M1039.92 1706.59c-8.75,0 -16.18,-5.38 -18.89,-13.61l-168.46 -499.87 0.82 0.01c149.42,0 286.6,-53.46 393.43,-142.24l217.96 493.64c7.35,16.74 -9.83,33.82 -26.53,26.25l-266.11 -120.28 -114.03 244.58c-3.33,7.09 -10.41,11.53 -18.19,11.53z" id="id_103" style="fill: rgb(255, 255, 255);"></path>
  <path class="fil0" d="M666.87 1706.59c-7.78,0 -14.86,-4.44 -18.06,-11.53l-114.17 -244.58 -266.25 120.14c-16.56,7.57 -33.94,-9.52 -26.53,-26.25l217.93 -493.58c106.85,88.83 244.07,142.33 393.59,142.33l0.65 -0.01 -168.41 499.73c-2.75,8.13 -10.66,13.75 -18.76,13.75z" id="id_104" style="fill: rgb(255, 255, 255);"></path>
 </g>
</svg>