<svg xmlns="http://www.w3.org/2000/svg" xmlns:xlink="http://www.w3.org/1999/xlink" viewBox="0,0,256,256" width="50px" height="50px"><g fill="#FF9843" fill-rule="nonzero" stroke="none" stroke-width="1" stroke-linecap="butt" stroke-linejoin="miter" stroke-miterlimit="10" stroke-dasharray="" stroke-dashoffset="0" font-family="none" font-weight="none" font-size="none" text-anchor="none" style="mix-blend-mode: normal"><g transform="scale(5.12,5.12)"><path d="M25,2.00195c-12.6907,0 -23,10.3093 -23,23c0,12.69071 10.3093,23 23,23c12.69071,0 23,-10.30929 23,-23c0,-12.6907 -10.3093,-23 -23,-23zM25,4.00195c11.60982,0 21,9.39018 21,21c0,11.60983 -9.39018,21 -21,21c-11.60982,0 -21,-9.39017 -21,-21c0,-11.60982 9.39018,-21 21,-21zM36.71289,10c-3.595,1.851 -6.75298,4.61673 -9.70898,7.30273c-0.364,0.33 -1.10019,0.82492 -1.24219,1.16992c-0.115,0.279 -0.09553,0.74842 -0.14453,1.10742c-0.05,0.362 -0.09253,0.75027 -0.14453,1.07227c-0.111,0.69 -0.21267,1.37275 -0.63867,1.84375c-0.516,-0.414 -0.4823,-1.47878 -0.6543,-2.30078c-0.113,-0.039 -0.17586,0.11536 -0.25586,0.19336c-0.643,0.628 -1.40736,1.36405 -2.06836,1.99805c-0.245,1.698 -0.48009,3.51514 -0.87109,5.11914c-0.12,0.494 -0.2307,1.06481 -0.5957,1.38281c-0.441,-0.782 -0.46356,-2.142 -0.47656,-3.375c-0.005,-0.479 -0.06506,-0.96002 -0.03906,-1.41602c-0.111,-0.047 -0.22427,0.12947 -0.32227,0.23047c-0.29,0.3 -0.66722,0.69867 -0.94922,1.01367c0.123,1.839 0.39816,4.14539 0.28516,6.15039c-0.026,0.478 -0.07459,1.08319 -0.30859,1.11719c-0.351,0.051 -0.81692,-1.32233 -0.91992,-1.61133c-0.252,-0.713 -0.39756,-1.29322 -0.60156,-1.94922c-0.133,-0.051 -0.1767,0.15061 -0.2207,0.22461c-0.634,1.061 -0.68445,2.79047 -0.56445,4.60547c-0.59,-1.255 -1.2795,-2.39002 -2.0625,-3.41602c-0.169,-0.222 -0.2955,-0.16434 -0.1875,0.09766c0.485,1.174 0.9143,2.57025 1.2793,3.90625c-0.697,-0.984 -1.76759,-1.70825 -2.93359,-2.28125c-0.389,-0.191 -0.50069,0.03189 -0.17969,0.33789c0.791,0.753 1.50433,1.59692 2.23633,2.41992c-0.437,0.475 -0.75186,1.49117 -0.38086,2.32617c0.145,-0.285 0.26008,-0.54895 0.45508,-0.87695c0.133,-0.224 0.34592,-0.66963 0.66992,-0.64062c0.316,0.028 0.54959,0.83016 0.43359,1.28516c-0.242,0.944 -1.29426,2.03462 -1.69726,2.64063c-0.169,0.253 -0.16966,0.429 0.02734,0.25c0.882,-0.8 1.75466,-1.64359 2.34766,-2.68359c0.753,0.662 1.69717,1.09789 2.70117,1.46289c0.329,0.119 0.34048,0.00773 0.02148,-0.19727c-0.312,-0.2 -0.60547,-0.43017 -0.85547,-0.70117c-0.48,-0.52 -1.00352,-1.22147 -0.97852,-2.10547c0.293,0.074 0.29369,0.35697 0.42969,0.54297c0.774,1.066 2.35131,1.44514 3.94531,1.61914c0.308,0.034 0.30434,-0.08888 0.02734,-0.17187c-1.5,-0.45 -2.73864,-1.20872 -3.30664,-2.76172c2.713,0.39 6.85677,0.91414 9.25977,-0.50586c-3.031,0.028 -5.85888,-0.18406 -8.67188,-0.41406c0.864,-1.46 3.4133,-1.71705 5.6543,-1.74805c0.552,-0.008 1.26247,0.16987 1.60547,0.04688c0.173,-0.062 0.4015,-0.54634 0.5625,-0.77734c1.265,-1.814 2.55136,-3.59362 3.69336,-5.39062c-0.856,-0.025 -1.87527,0.14667 -2.32227,-0.36133c0.301,-0.687 1.29077,-0.82884 2.25977,-0.83984c0.21,-0.002 0.44077,0.06605 0.63477,-0.00195c0.271,-0.095 0.79731,-0.90858 1.07031,-1.26758c0.987,-1.294 2.08291,-2.72964 3.00391,-3.93164c0.662,-0.864 1.34153,-1.75238 1.89453,-2.73437c0.546,-0.969 1.06284,-2.1548 1.08984,-3.4668c0.032,-1.539 -0.49316,-2.83506 -1.28516,-3.53906zM33.58203,15.35742c-1.871,2.804 -3.64389,5.70275 -5.71289,8.34375c-2.06,2.628 -4.38855,5.03466 -6.56055,7.47266c3.744,-5.602 7.98644,-10.73041 12.27344,-15.81641z"></path></g></g></svg>